<svg width="72" height="72" viewBox="0 0 72 72" fill="none" xmlns="http://www.w3.org/2000/svg">
<path d="M56 48H60C61.104 48 62 48.896 62 50V56C62 57.104 61.104 58 60 58H56V48Z" fill="url(#paint0_linear_6536_278366)"/>
<path d="M56 36H60C61.104 36 62 36.896 62 38V44C62 45.104 61.104 46 60 46H56V36Z" fill="url(#paint1_linear_6536_278366)"/>
<path d="M56 24H60C61.104 24 62 24.896 62 26V32C62 33.104 61.104 34 60 34H56V24Z" fill="url(#paint2_linear_6536_278366)"/>
<path d="M56 12H60C61.104 12 62 12.896 62 14V20C62 21.104 61.104 22 60 22H56V12Z" fill="url(#paint3_linear_6536_278366)"/>
<path d="M14 48V60C14 62.2 15.8 64 18 64H54C56.2 64 58 62.2 58 60V48H14Z" fill="url(#paint4_linear_6536_278366)"/>
<path d="M15 60V49H57V60C57 61.6477 55.6477 63 54 63H18C16.3523 63 15 61.6477 15 60Z" stroke="url(#paint5_linear_6536_278366)" stroke-width="2"/>
<path d="M58 14V52C58 54.2 56.2 56 54 56H18C15.8 56 14 57.8 14 60V14C14 10.68 16.68 8 20 8H52C55.32 8 58 10.68 58 14Z" fill="url(#paint6_linear_6536_278366)"/>
<rect x="23" y="16" width="27" height="9" rx="2" fill="white"/>
<defs>
<linearGradient id="paint0_linear_6536_278366" x1="60" y1="52.5" x2="56" y2="52.5" gradientUnits="userSpaceOnUse">
<stop stop-color="#0078D4"/>
<stop offset="1" stop-color="#0050AC"/>
</linearGradient>
<linearGradient id="paint1_linear_6536_278366" x1="60" y1="41" x2="56" y2="41" gradientUnits="userSpaceOnUse">
<stop stop-color="#107C10"/>
<stop offset="1" stop-color="#005400"/>
</linearGradient>
<linearGradient id="paint2_linear_6536_278366" x1="60" y1="28.5" x2="56" y2="28.5" gradientUnits="userSpaceOnUse">
<stop stop-color="#E25A01"/>
<stop offset="1" stop-color="#BA3200"/>
</linearGradient>
<linearGradient id="paint3_linear_6536_278366" x1="60" y1="17" x2="56" y2="17" gradientUnits="userSpaceOnUse">
<stop stop-color="#D70A0A"/>
<stop offset="0.727567" stop-color="#A50000"/>
</linearGradient>
<linearGradient id="paint4_linear_6536_278366" x1="48" y1="48" x2="41.3707" y2="51.0391" gradientUnits="userSpaceOnUse">
<stop stop-color="#D7D4D4"/>
<stop offset="1" stop-color="#EAE8E8"/>
</linearGradient>
<linearGradient id="paint5_linear_6536_278366" x1="36" y1="48" x2="36" y2="64" gradientUnits="userSpaceOnUse">
<stop stop-opacity="0.35"/>
<stop offset="1" stop-opacity="0.3"/>
</linearGradient>
<linearGradient id="paint6_linear_6536_278366" x1="14" y1="3.5" x2="58" y2="65" gradientUnits="userSpaceOnUse">
<stop stop-color="#A35CFF"/>
<stop offset="1" stop-color="#4931DE"/>
</linearGradient>
</defs>
</svg>
